<svg xmlns="http://www.w3.org/2000/svg" width="107.5" height="20.87" viewBox="0 0 107.5 20.87"><title>morecast-logo</title><g data-name="Ebene 1"><path d="M22.27 17.68a2.92 2.92 0 0 0 1.37-.31 3.16 3.16 0 0 0 1-.82 3.56 3.56 0 0 0 .62-1.19 4.82 4.82 0 0 0 .21-1.42 4.71 4.71 0 0 0-.21-1.41 3.57 3.57 0 0 0-.62-1.18 3.15 3.15 0 0 0-1-.82 2.92 2.92 0 0 0-1.37-.31 3 3 0 0 0-1.38.31 3.11 3.11 0 0 0-1 .82 3.57 3.57 0 0 0-.62 1.18 4.71 4.71 0 0 0-.27 1.4 4.82 4.82 0 0 0 .21 1.42 3.56 3.56 0 0 0 .62 1.19 3.13 3.13 0 0 0 1 .82 3 3 0 0 0 1.38.31m0 1.34a4.82 4.82 0 0 1-2-.4 4.46 4.46 0 0 1-1.51-1.09 4.82 4.82 0 0 1-1-1.61 6.09 6.09 0 0 1 0-4 4.7 4.7 0 0 1 1-1.61 4.55 4.55 0 0 1 1.51-1.08 5.16 5.16 0 0 1 4 0 4.55 4.55 0 0 1 1.51 1.08 4.71 4.71 0 0 1 1 1.61 6.09 6.09 0 0 1 0 4 4.83 4.83 0 0 1-1 1.61 4.46 4.46 0 0 1-1.51 1.09 4.82 4.82 0 0 1-2 .4M29.51 18.79V9.1H31v1.56a5.06 5.06 0 0 1 1.4-1.26 3.44 3.44 0 0 1 1.82-.5v1.54a2.87 2.87 0 0 0-.6-.06 2.34 2.34 0 0 0-.73.13 3.9 3.9 0 0 0-.76.35 4.26 4.26 0 0 0-.67.49 2.13 2.13 0 0 0-.46.57v6.86zM43.51 13.33a3.51 3.51 0 0 0-.19-1.11 3.21 3.21 0 0 0-.58-1 3 3 0 0 0-1-.77 3.15 3.15 0 0 0-1.42-.3 2.94 2.94 0 0 0-1.36.3 3.18 3.18 0 0 0-1 .76 3.42 3.42 0 0 0-.6 1 3.64 3.64 0 0 0-.23 1.13zm-3 5.7a5.17 5.17 0 0 1-2-.37 4.53 4.53 0 0 1-1.55-1 4.82 4.82 0 0 1-1-1.6 5.55 5.55 0 0 1-.37-2.08 5.4 5.4 0 0 1 .36-2 5 5 0 0 1 1-1.61 4.74 4.74 0 0 1 1.51-1.08 4.56 4.56 0 0 1 1.92-.4 4.63 4.63 0 0 1 2 .4 4.31 4.31 0 0 1 1.47 1.1A4.78 4.78 0 0 1 44.7 12a6.5 6.5 0 0 1 .31 2v.38h-7.86a3.84 3.84 0 0 0 .3 1.29 3.34 3.34 0 0 0 .71 1.06 3.43 3.43 0 0 0 1.07.72 3.47 3.47 0 0 0 1.4.27 4.24 4.24 0 0 0 1.63-.32 4.13 4.13 0 0 0 1.36-.9l.72 1a4.92 4.92 0 0 1-1.68 1.1 5.85 5.85 0 0 1-2.16.4M51.69 19a4.86 4.86 0 0 1-2-.39 4.52 4.52 0 0 1-1.52-1.07 4.86 4.86 0 0 1-1-1.61 5.67 5.67 0 0 1-.35-2 5.6 5.6 0 0 1 .35-2 4.91 4.91 0 0 1 1-1.6 4.54 4.54 0 0 1 1.52-1.07 4.88 4.88 0 0 1 2-.39 4.27 4.27 0 0 1 2.16.48 4.77 4.77 0 0 1 1.39 1.2l-1 .92a3 3 0 0 0-1.09-1 3.07 3.07 0 0 0-1.37-.3 3.31 3.31 0 0 0-1.39.28 3.12 3.12 0 0 0-1.05.78 3.44 3.44 0 0 0-.67 1.18 4.59 4.59 0 0 0-.23 1.48 4.69 4.69 0 0 0 .23 1.49 3.42 3.42 0 0 0 .67 1.19 3.12 3.12 0 0 0 1.05.78 3.31 3.31 0 0 0 1.39.28 2.94 2.94 0 0 0 2.47-1.26l1 .92a4.77 4.77 0 0 1-1.39 1.2 4.27 4.27 0 0 1-2.16.48M60.73 17.94a3.84 3.84 0 0 0 1.51-.3 2.71 2.71 0 0 0 1.15-.9v-1.82a2.71 2.71 0 0 0-1.15-.9 3.86 3.86 0 0 0-1.51-.3 2.49 2.49 0 0 0-1.73.58 2 2 0 0 0-.66 1.53 1.94 1.94 0 0 0 .66 1.52 2.49 2.49 0 0 0 1.72.59m2.67.84v-1.1a4.13 4.13 0 0 1-3.2 1.32 3.84 3.84 0 0 1-1.22-.2 3.19 3.19 0 0 1-1.87-1.6 3.06 3.06 0 0 1-.3-1.38 3.11 3.11 0 0 1 .3-1.4 3.08 3.08 0 0 1 .78-1 3.17 3.17 0 0 1 1.12-.6 4 4 0 0 1 1.22-.19A4.9 4.9 0 0 1 62 13a3.5 3.5 0 0 1 1.39 1v-1.79a1.8 1.8 0 0 0-.69-1.51 2.8 2.8 0 0 0-1.7-.54 4 4 0 0 0-3 1.34l-.7-1a5.15 5.15 0 0 1 3.87-1.6 5.64 5.64 0 0 1 1.43.1 3.36 3.36 0 0 1 1.19.57 2.76 2.76 0 0 1 .81 1 3.42 3.42 0 0 1 .3 1.5v6.66zM71 19a6.16 6.16 0 0 1-2.19-.37 4.58 4.58 0 0 1-1.72-1.15l.78-1.08a4 4 0 0 0 1.33 1 4.21 4.21 0 0 0 1.8.4 2.66 2.66 0 0 0 1.71-.47 1.47 1.47 0 0 0 .58-1.19 1 1 0 0 0-.44-.89 3.84 3.84 0 0 0-1.11-.51q-.67-.2-1.44-.37a7.08 7.08 0 0 1-1.44-.48 3.24 3.24 0 0 1-1.11-.82 2.09 2.09 0 0 1-.44-1.41 2.5 2.5 0 0 1 .24-1.07 2.56 2.56 0 0 1 .7-.89 3.44 3.44 0 0 1 1.13-.6 4.91 4.91 0 0 1 1.53-.22 5 5 0 0 1 2.13.41 5.09 5.09 0 0 1 1.46 1l-.7 1a3.43 3.43 0 0 0-1.19-.87 4 4 0 0 0-1.69-.35 2.52 2.52 0 0 0-1.57.44 1.33 1.33 0 0 0-.57 1.08.9.9 0 0 0 .44.8 4.22 4.22 0 0 0 1.11.47q.67.19 1.44.36a6.75 6.75 0 0 1 1.44.49 3.13 3.13 0 0 1 1.11.87 2.33 2.33 0 0 1 .44 1.49 2.77 2.77 0 0 1-.24 1.14 2.5 2.5 0 0 1-.72.93 3.63 3.63 0 0 1-1.19.62A5.36 5.36 0 0 1 71 19M79.68 19a2.06 2.06 0 0 1-1.61-.59 2.41 2.41 0 0 1-.53-1.67v-6.3h-1.6V9.1h1.6V6.45H79V9.1h2v1.34h-2v6a1.54 1.54 0 0 0 .24.89.84.84 0 0 0 .74.35 1.51 1.51 0 0 0 1-.4l.44 1.12a2.07 2.07 0 0 1-.71.45 3 3 0 0 1-1.09.17M2.35 9.15c0-.67.12-1.34.21-2a.75.75 0 0 1 .79-.69.79.79 0 0 1 .9.64 6.76 6.76 0 0 1 .16.84c.45 3.06.88 6.12 1.35 9.18a1.75 1.75 0 0 0 2 1.72c1.14 0 1.71-.5 1.91-1.72.27-1.71.5-3.42.75-5.14s.48-3.18.73-4.76a.8.8 0 0 1 .85-.77c.58 0 .77.39.82.88.09 1 .16 1.95.23 2.92.18 2.41.44 6 .64 8.58h1.68c-.06-.75-.2-2.51-.24-3.09-.21-2.78-.39-5.57-.63-8.35a2.34 2.34 0 0 0-1.5-2.3A2.46 2.46 0 0 0 9.57 7c-.07.3-.11.6-.15.9q-.6 4.45-1.21 8.89c0 .32-.08.7-.52.7s-.47-.37-.51-.7c-.27-2-.53-4-.82-6-.21-1.45-.4-2.9-.74-4.32a2 2 0 0 0-2.28-1.53A2.16 2.16 0 0 0 1 6.61a10.85 10.85 0 0 0-.24 1.81C.52 11.48.23 15.69 0 18.83h1.66c.21-2.93.49-6.87.7-9.68M100.15.47A10.43 10.43 0 0 0 87.1 13.52a.73.73 0 0 1-.1.48c-.76 1.16-1.54 2.32-2.35 3.53l1.49.09c1.09.06 2.17.11 3.25.19a.93.93 0 0 1 .45.17A10.43 10.43 0 1 0 100.15.47" fill="#fff"/><path d="M90.65 14.68a1.59 1.59 0 1 1 0-3.18 2.39 2.39 0 0 1 .86-1.14 2.43 2.43 0 0 1 3.85 2 1.25 1.25 0 0 1 1.08 1.17 1.19 1.19 0 0 1-1.21 1.18h-4.58z" fill="#a2c8e2"/><path d="M97.09 6a4.41 4.41 0 0 0-4.27 3.31 3 3 0 0 1 .57 0 3.85 3.85 0 1 1 3.71 4.91h-.38a1.8 1.8 0 0 1-.44.51h.21a4.48 4.48 0 0 0 .6 0 4.43 4.43 0 0 0 0-8.86" fill="#fff"/><path d="M97.08 5a5.43 5.43 0 0 0-5.36 4.59 3 3 0 0 1 1.1-.25 4.41 4.41 0 1 1 3.48 5.42 1.75 1.75 0 0 1-1.11.39h-.8A5.43 5.43 0 1 0 97.08 5" fill="#fbb721"/><path d="M101 10.44a3.88 3.88 0 0 0-7.61-1.06 2.94 2.94 0 0 1 2.47 2.51 1.74 1.74 0 0 1 1.1 1.57 1.65 1.65 0 0 1-.23.84h.38a3.88 3.88 0 0 0 3.89-3.86" fill="#fbb721"/></g></svg>